<?xml version="1.0" encoding="utf-8"?>
<!-- Generator: Adobe Illustrator 26.0.3, SVG Export Plug-In . SVG Version: 6.00 Build 0)  -->
<svg version="1.1" id="Camada_1" xmlns="http://www.w3.org/2000/svg" xmlns:xlink="http://www.w3.org/1999/xlink" x="0px" y="0px"
	 viewBox="0 0 24 24" style="enable-background:new 0 0 24 24;" xml:space="preserve">
<style type="text/css">
	.st0{fill:#FFFFFF;}
</style>
<path class="st0" d="M17,12l0.5,0.5c0.3-0.3,0.3-0.8,0-1.1L17,12z M7,11.2c-0.4,0-0.8,0.3-0.8,0.8s0.3,0.8,0.8,0.8V11.2z M12.5,15.5
	c-0.3,0.3-0.3,0.8,0,1.1s0.8,0.3,1.1,0L12.5,15.5z M13.5,7.5c-0.3-0.3-0.8-0.3-1.1,0c-0.3,0.3-0.3,0.8,0,1.1L13.5,7.5z M17,11.2H7
	v1.5h10V11.2z M13.5,16.5l4-4l-1.1-1.1l-4,4L13.5,16.5z M17.5,11.5l-4-4l-1.1,1.1l4,4L17.5,11.5z M8,4.8h8V3.2H8V4.8z M19.2,8v8h1.5
	V8H19.2z M16,19.2H8v1.5h8V19.2z M4.8,16V8H3.2v8H4.8z M8,19.2c-1.8,0-3.2-1.5-3.2-3.2H3.2c0,2.6,2.1,4.8,4.8,4.8V19.2z M19.2,16
	c0,1.8-1.5,3.2-3.2,3.2v1.5c2.6,0,4.8-2.1,4.8-4.8H19.2z M16,4.8c1.8,0,3.2,1.5,3.2,3.2h1.5c0-2.6-2.1-4.8-4.8-4.8V4.8z M8,3.2
	C5.4,3.2,3.2,5.4,3.2,8h1.5c0-1.8,1.5-3.2,3.2-3.2V3.2z"/>
</svg>
