<?xml version="1.0" encoding="utf-8"?>
<!-- Generator: Adobe Illustrator 26.0.3, SVG Export Plug-In . SVG Version: 6.00 Build 0)  -->
<svg version="1.1" id="Camada_1" xmlns="http://www.w3.org/2000/svg" xmlns:xlink="http://www.w3.org/1999/xlink" x="0px" y="0px"
	 viewBox="0 0 15 15" style="enable-background:new 0 0 15 15;" xml:space="preserve">
<style type="text/css">
	.st0{fill-rule:evenodd;clip-rule:evenodd;fill:#FFFFFF;}
	.st1{fill:#FFFFFF;}
</style>
<path class="st0" d="M11,2H4V0H3v2H1.5C0.7,2,0,2.7,0,3.5v8C0,12.3,0.7,13,1.5,13h12c0.8,0,1.5-0.7,1.5-1.5v-8C15,2.7,14.3,2,13.5,2
	H12V0h-1V2z M3,6c0-1.1,0.9-2,2-2s2,0.9,2,2S6.1,8,5,8S3,7.1,3,6z M2.4,10.6C2.9,9.6,3.9,9,5,9c1.1,0,2.1,0.6,2.6,1.6l0.3,0.7
	c0.1,0.2,0.1,0.3,0,0.5C7.8,11.9,7.7,12,7.5,12h-5c-0.2,0-0.3-0.1-0.4-0.2c-0.1-0.1-0.1-0.3,0-0.5L2.4,10.6z M9,6h3V5H9V6z M9,9h3V8
	H9V9z"/>
<path class="st1" d="M15,14v1H0v-1H15z"/>
</svg>
