<?xml version="1.0" encoding="utf-8"?>
<!-- Generator: Adobe Illustrator 26.0.3, SVG Export Plug-In . SVG Version: 6.00 Build 0)  -->
<svg version="1.1" id="Layer_1" xmlns="http://www.w3.org/2000/svg" xmlns:xlink="http://www.w3.org/1999/xlink" x="0px" y="0px"
	 viewBox="0 0 512 512" style="enable-background:new 0 0 512 512;" xml:space="preserve">
<style type="text/css">
	.st0{fill:#FFFFFF;}
</style>
<g>
	<g>
		<g>
			<path class="st0" d="M448,192h-21.3v-21.3C426.7,76.4,350.3,0,256,0S85.3,76.4,85.3,170.7V192H64c-11.8,0-21.3,9.6-21.3,21.3V384
				v0v64c0,35.4,28.6,64,64,64h298.7c35.4,0,64-28.6,64-64v-64v0V213.3C469.3,201.6,459.8,192,448,192z M128,170.7
				c0-70.7,57.3-128,128-128s128,57.3,128,128V192H128V170.7z M426.7,234.7v128H85.3v-128H426.7z M405.3,469.3H106.7
				c-11.8,0-21.3-9.5-21.3-21.3v-42.7h341.3V448C426.7,459.8,417.1,469.3,405.3,469.3z"/>
			<path class="st0" d="M170.7,341.3c11.8,0,21.3-9.6,21.3-21.3v-42.7c0-11.8-9.6-21.3-21.3-21.3c-11.8,0-21.3,9.6-21.3,21.3V320
				C149.3,331.8,158.9,341.3,170.7,341.3z"/>
			<path class="st0" d="M256,341.3c11.8,0,21.3-9.6,21.3-21.3v-42.7c0-11.8-9.6-21.3-21.3-21.3c-11.8,0-21.3,9.6-21.3,21.3V320
				C234.7,331.8,244.2,341.3,256,341.3z"/>
			<path class="st0" d="M341.3,341.3c11.8,0,21.3-9.6,21.3-21.3v-42.7c0-11.8-9.6-21.3-21.3-21.3s-21.3,9.6-21.3,21.3V320
				C320,331.8,329.6,341.3,341.3,341.3z"/>
		</g>
	</g>
</g>
</svg>
