<?xml version="1.0" encoding="utf-8"?>
<!-- Generator: Adobe Illustrator 26.0.3, SVG Export Plug-In . SVG Version: 6.00 Build 0)  -->
<svg version="1.1" id="Uploaded_to_svgrepo.com" xmlns="http://www.w3.org/2000/svg" xmlns:xlink="http://www.w3.org/1999/xlink"
	 x="0px" y="0px" viewBox="0 0 32 32" style="enable-background:new 0 0 32 32;" xml:space="preserve">
<style type="text/css">
	.st0{fill:#FFFFFF;}
</style>
<path class="st0" d="M28,4h-2V1c0-0.6-0.4-1-1-1H4C3.4,0,3,0.4,3,1v27c0,0.6,0.4,1,1,1h3v2c0,0.6,0.4,1,1,1h20c0.6,0,1-0.4,1-1V5
	C29,4.4,28.6,4,28,4z M24,27H5V2h19V27z M27,30H9v-2h15c0.6,0,1-0.4,1-1V6h2V30z M20,9H9V8h11V9z M20,12H9v-1h11V12z M20,15H9v-1h11
	V15z M20,18H9v-1h11V18z M20,21H9v-1h11V21z"/>
</svg>
